<svg version="1.2" baseProfile="tiny-ps" xmlns="http://www.w3.org/2000/svg" viewBox="0 0 2703 2000" width="2703" height="2000">
	<title>Happy girl playing with father in volleyball-ai</title>
	<style>
		tspan { white-space:pre }
		.shp0 { fill: #ffffff } 
		.shp1 { fill: #d1edff } 
		.shp2 { opacity: 0.471;fill: #f0fbff } 
		.shp3 { fill: #a1c2f5 } 
		.shp4 { fill: #b6d2fb } 
		.shp5 { fill: #466eb6 } 
		.shp6 { fill: #13375b } 
		.shp7 { fill: #f7a491 } 
		.shp8 { fill: #f48c7f } 
		.shp9 { fill: #07345a } 
		.shp10 { fill: #3a628c } 
		.shp11 { fill: #f47458 } 
		.shp12 { fill: #b75742 } 
		.shp13 { fill: #f7cc7f } 
		.shp14 { fill: #f8a492 } 
		.shp15 { fill: #103152 } 
	</style>
	<g id="Layer 1">
		<path id="&lt;Path&gt;" class="shp0" d="M2702.94 1999.69L-0.05 1999.69L-0.05 -0.31L2702.94 -0.31L2702.94 1999.69Z" />
		<g id="&lt;Group&gt;">
			<g id="&lt;Group&gt;">
				<path id="&lt;Path&gt;" class="shp1" d="M2338.54 1823.9C2528.89 1557.54 2600.39 850.71 2299.81 889.3C2299.81 244.39 1744.62 148.39 1495.37 323.56C1303.21 116.39 979.21 165.28 827.21 324.39C564.52 252.39 312.47 409.12 218.33 731.22C126.87 1044.19 175.21 1581.94 475.15 1819.95C1217.9 1819.95 1839.03 1821.27 2338.54 1823.9Z" />
			</g>
			<path id="&lt;Path&gt;" class="shp2" d="M587.75 706.75C583.63 690.75 567.6 678.81 548.44 678.81C544.92 678.81 541.51 679.21 538.26 679.97C528.8 661.89 508.27 649.37 484.47 649.37C478.32 649.37 472.38 650.21 466.8 651.76C453.99 632.8 430.71 620.13 404.12 620.13C372.48 620.13 345.53 638.07 335.32 663.19C328.09 659.59 319.77 657.53 310.9 657.53C283.17 657.53 260.69 677.62 260.69 702.4C260.69 703.87 260.77 705.32 260.93 706.75L587.75 706.75Z" />
			<path id="&lt;Path&gt;" class="shp2" d="M1229.98 1060.87C1234.9 1042.51 1254.04 1028.82 1276.92 1028.82C1281.12 1028.82 1285.19 1029.28 1289.07 1030.15C1300.37 1009.42 1324.87 995.06 1353.29 995.06C1360.64 995.06 1367.72 996.02 1374.39 997.8C1389.69 976.06 1417.48 961.52 1449.23 961.52C1487.01 961.52 1519.19 982.1 1531.38 1010.91C1540.01 1006.78 1549.94 1004.42 1560.53 1004.42C1593.64 1004.42 1620.48 1027.45 1620.48 1055.87C1620.48 1057.56 1620.38 1059.22 1620.2 1060.87L1229.98 1060.87Z" />
			<path id="&lt;Path&gt;" class="shp2" d="M2500.07 1306.53C2491.82 1301.18 2481.97 1298.01 2471.35 1298.01C2462.13 1298.01 2453.47 1300.38 2445.95 1304.5C2435.32 1275.7 2407.28 1255.12 2374.36 1255.12C2346.68 1255.12 2322.46 1269.66 2309.13 1291.4C2303.32 1289.62 2297.14 1288.66 2290.74 1288.66C2265.97 1288.66 2244.61 1303.02 2234.77 1323.74C2231.39 1322.88 2227.84 1322.41 2224.18 1322.41C2204.24 1322.41 2187.55 1336.11 2183.27 1354.46L2495.41 1354.46C2497.28 1338.4 2498.84 1322.4 2500.07 1306.53Z" />
			<path id="&lt;Path&gt;" class="shp2" d="M356.6 1321.4C360.88 1303.05 377.56 1289.35 397.5 1289.35C401.16 1289.35 404.71 1289.82 408.1 1290.68C417.94 1269.96 439.3 1255.6 464.06 1255.6C470.47 1255.6 476.64 1256.56 482.45 1258.34C495.78 1236.6 520.01 1222.06 547.68 1222.06C580.61 1222.06 608.65 1242.64 619.27 1271.44C626.8 1267.32 635.46 1264.95 644.68 1264.95C673.54 1264.95 696.93 1287.99 696.93 1316.41C696.93 1318.1 696.84 1319.76 696.68 1321.4L356.6 1321.4Z" />
			<path id="&lt;Path&gt;" class="shp2" d="M1953.09 447.64C1948.97 431.64 1932.94 419.69 1913.78 419.69C1910.26 419.69 1906.85 420.1 1903.6 420.86C1894.14 402.78 1873.62 390.26 1849.81 390.26C1843.66 390.26 1837.73 391.1 1832.14 392.65C1819.33 373.69 1796.05 361.02 1769.46 361.02C1737.82 361.02 1710.87 378.96 1700.66 404.08C1693.43 400.48 1685.11 398.42 1676.25 398.42C1648.51 398.42 1626.03 418.51 1626.03 443.29C1626.03 444.76 1626.11 446.21 1626.27 447.64L1953.09 447.64Z" />
			<path id="&lt;Path&gt;" class="shp3" d="M2313.03 1823.9C2099.95 1647.94 1926.37 1546.47 1792.28 1519.49C1658.19 1492.5 1654.34 1532.6 1780.72 1639.78C1570.56 1481.56 1420.85 1406.84 1331.58 1415.64C1233.84 1425.27 1209.14 1473.47 1257.49 1560.24C1191.15 1498.6 1104.01 1473.09 996.07 1483.71C870.73 1496.04 931.53 1607.46 1178.47 1817.97L2313.03 1823.9Z" />
			<path id="&lt;Path&gt;" class="shp4" d="M1365.69 1817.28C1242.67 1666.66 1118.61 1588.1 993.5 1581.6C817.37 1572.46 925.56 1720.56 914.35 1712.87C903.15 1705.17 752.89 1557.3 609.64 1597.7C500.62 1628.45 528.75 1677.66 694.02 1745.34C467.45 1696.74 345.3 1697.96 327.56 1749C312.83 1791.35 346.64 1814.12 428.99 1817.28L1365.69 1817.28Z" />
			<g id="&lt;Group&gt;">
				<g id="&lt;Group&gt;">
					<path id="&lt;Path&gt;" class="shp5" d="M2301.03 1535.88C2329.65 1625.97 2342.68 1721.02 2338.89 1817.27L2342.51 1817.27C2345.87 1722.94 2333.04 1628.11 2304.48 1538.12C2297.85 1517.21 2291.19 1492.73 2271.67 1480.03C2271.29 1479.79 2270.97 1480.37 2271.32 1480.63C2288.88 1493.22 2294.82 1516.32 2301.03 1535.88Z" />
				</g>
				<g id="&lt;Group&gt;">
					<path id="&lt;Path&gt;" class="shp5" d="M2326.17 1817.27C2291.21 1727.71 2242.87 1640.63 2179.46 1559.17C2178.83 1558.36 2177.38 1559.46 2178.02 1560.28C2237.9 1638.49 2286.28 1724.84 2321.69 1817.27L2326.17 1817.27Z" />
				</g>
				<path id="&lt;Path&gt;" class="shp5" d="M2309.31 1486.99C2307.55 1488.51 2301.39 1492.07 2298.25 1498.08C2294.72 1503.63 2294.19 1511.61 2294.43 1511.39C2294.75 1511.64 2290.13 1504.98 2290.42 1496.44C2290.07 1488.08 2294.63 1477.84 2298.58 1475.1C2305.93 1468.48 2315.22 1470.1 2315.94 1474.46C2316.78 1478.82 2313 1483.43 2309.31 1486.99Z" />
				<path id="&lt;Path&gt;" class="shp5" d="M2279.13 1552.46C2281.32 1551.65 2287.41 1547.99 2294.19 1548.14C2300.75 1547.72 2308 1551.12 2307.69 1551.22C2307.75 1551.62 2304.16 1544.36 2296.54 1540.49C2289.39 1536.14 2278.22 1535.18 2273.91 1537.33C2264.56 1540.56 2261.49 1549.48 2264.96 1552.22C2268.37 1555.06 2274.24 1553.97 2279.13 1552.46Z" />
				<path id="&lt;Path&gt;" class="shp5" d="M2288.84 1587.31C2291.03 1586.5 2297.12 1582.83 2303.9 1582.99C2310.46 1582.57 2317.71 1585.97 2317.4 1586.07C2317.46 1586.47 2313.87 1579.21 2306.25 1575.33C2299.1 1570.98 2287.92 1570.03 2283.62 1572.17C2274.27 1575.4 2271.2 1584.33 2274.67 1587.06C2278.08 1589.9 2283.95 1588.82 2288.84 1587.31Z" />
				<path id="&lt;Path&gt;" class="shp5" d="M2206.74 1640.09C2208.93 1639.28 2215.02 1635.61 2221.79 1635.76C2228.36 1635.34 2235.6 1638.74 2235.3 1638.84C2235.36 1639.25 2231.76 1631.98 2224.14 1628.11C2216.99 1623.76 2205.82 1622.8 2201.51 1624.95C2192.17 1628.18 2189.1 1637.1 2192.56 1639.84C2195.98 1642.68 2201.84 1641.59 2206.74 1640.09Z" />
				<path id="&lt;Path&gt;" class="shp5" d="M2182 1602.87C2184.19 1602.05 2190.28 1598.39 2197.05 1598.54C2203.62 1598.12 2210.86 1601.52 2210.55 1601.62C2210.62 1602.02 2207.02 1594.76 2199.4 1590.88C2192.25 1586.54 2181.08 1585.58 2176.77 1587.73C2167.43 1590.96 2164.36 1599.88 2167.82 1602.62C2171.24 1605.46 2177.1 1604.38 2182 1602.87Z" />
				<path id="&lt;Path&gt;" class="shp5" d="M2325.06 1527.69C2323.07 1528.92 2316.43 1531.47 2312.39 1536.9C2308.02 1541.82 2306.25 1549.63 2306.51 1549.44C2306.79 1549.74 2303.28 1542.44 2304.91 1534.05C2305.88 1525.74 2312 1516.34 2316.34 1514.26C2324.63 1508.88 2333.56 1511.95 2333.58 1516.37C2333.72 1520.8 2329.26 1524.76 2325.06 1527.69Z" />
				<path id="&lt;Path&gt;" class="shp5" d="M2342.05 1568.82C2339.54 1569.39 2331.29 1569.45 2325.88 1574.16C2320.13 1578.11 2317.23 1586.71 2317.57 1586.61C2317.88 1587.1 2314.35 1576.7 2317.14 1567.33C2319.12 1557.75 2327.42 1549.21 2332.85 1548.67C2343.38 1545.95 2353.83 1553.7 2353.43 1559.03C2353.16 1564.44 2347.4 1567.19 2342.05 1568.82Z" />
				<path id="&lt;Path&gt;" class="shp5" d="M2355.71 1627.86C2353.13 1628.01 2344.99 1626.67 2338.87 1630.41C2332.54 1633.33 2328.23 1641.33 2328.58 1641.28C2328.8 1641.82 2327.08 1630.97 2331.4 1622.2C2334.97 1613.1 2344.58 1606.07 2350.03 1606.45C2360.86 1605.54 2369.86 1614.94 2368.57 1620.13C2367.4 1625.41 2361.25 1627.16 2355.71 1627.86Z" />
				<path id="&lt;Path&gt;" class="shp5" d="M2264.66 1642.03C2262.64 1642.64 2255.93 1643.15 2251.8 1647.3C2247.36 1650.83 2245.49 1658 2245.75 1657.9C2246.03 1658.27 2242.58 1650.02 2244.31 1642.24C2245.38 1634.33 2251.63 1626.91 2256.03 1626.16C2264.43 1623.35 2273.38 1629.06 2273.35 1633.42C2273.45 1637.84 2268.91 1640.4 2264.66 1642.03Z" />
				<path id="&lt;Path&gt;" class="shp5" d="M2260.8 1486.95C2262.06 1486.38 2265.51 1483.94 2269.52 1483.73C2273.38 1483.2 2277.82 1484.89 2277.64 1484.96C2277.7 1485.2 2275.25 1481.06 2270.58 1479.1C2266.16 1476.84 2259.5 1476.77 2257.05 1478.22C2251.66 1480.54 2250.24 1485.96 2252.41 1487.42C2254.55 1488.95 2257.98 1488.06 2260.8 1486.95Z" />
				<path id="&lt;Path&gt;" class="shp5" d="M2276.56 1467.64C2276.16 1468.96 2274.2 1472.7 2274.53 1476.71C2274.51 1480.61 2276.78 1484.78 2276.82 1484.59C2277.06 1484.62 2272.64 1482.74 2270.08 1478.37C2267.25 1474.28 2266.3 1467.7 2267.41 1465.07C2269 1459.43 2274.18 1457.3 2275.92 1459.26C2277.72 1461.18 2277.28 1464.69 2276.56 1467.64Z" />
				<path id="&lt;Path&gt;" class="shp5" d="M2166.46 1567.54C2167.72 1566.97 2171.17 1564.53 2175.18 1564.33C2179.04 1563.79 2183.48 1565.49 2183.3 1565.56C2183.36 1565.79 2180.91 1561.65 2176.24 1559.7C2171.81 1557.44 2165.16 1557.36 2162.71 1558.82C2157.32 1561.14 2155.9 1566.55 2158.07 1568.02C2160.21 1569.55 2163.63 1568.65 2166.46 1567.54Z" />
				<path id="&lt;Path&gt;" class="shp5" d="M2184.31 1548.59C2183.8 1549.88 2181.54 1553.44 2181.54 1557.46C2181.2 1561.35 2183.12 1565.69 2183.18 1565.51C2183.42 1565.55 2179.16 1563.32 2176.97 1558.75C2174.49 1554.45 2174.07 1547.81 2175.4 1545.28C2177.45 1539.79 2182.78 1538.09 2184.35 1540.18C2185.99 1542.25 2185.27 1545.71 2184.31 1548.59Z" />
			</g>
			<g id="&lt;Group&gt;">
				<g id="&lt;Group&gt;">
					<path id="&lt;Path&gt;" class="shp5" d="M1505.71 1610.33C1553.51 1657.79 1595.18 1711.59 1626.33 1771.41C1635.07 1788.21 1642.47 1805.49 1650.09 1822.79C1651.11 1825.09 1655.03 1823.46 1654.17 1821.08C1653.32 1818.7 1652.47 1816.33 1651.62 1813.96C1651.12 1812.56 1648.6 1812.64 1648.82 1814.34C1649.15 1816.78 1649.47 1819.22 1649.79 1821.67C1651.25 1821.47 1652.71 1821.27 1654.17 1821.08C1642.33 1789.8 1625.89 1759.65 1608.19 1731.34C1555.16 1646.48 1500.25 1604.91 1505.71 1610.33Z" />
				</g>
				<path id="&lt;Path&gt;" class="shp5" d="M1565.02 1636.09C1563.61 1637.7 1558.47 1641.73 1556.38 1647.6C1553.88 1653.1 1554.43 1660.44 1554.61 1660.21C1554.94 1660.39 1549.88 1654.93 1549.04 1647.12C1547.65 1639.55 1550.48 1629.65 1553.73 1626.64C1559.56 1619.68 1568.23 1619.96 1569.45 1623.83C1570.77 1627.69 1567.92 1632.38 1565.02 1636.09Z" />
				<path id="&lt;Path&gt;" class="shp5" d="M1532.58 1601.36C1531.16 1602.97 1526.02 1607 1523.93 1612.87C1521.43 1618.37 1521.98 1625.71 1522.16 1625.48C1522.49 1625.66 1517.43 1620.2 1516.59 1612.39C1515.2 1604.82 1518.03 1594.91 1521.28 1591.91C1527.11 1584.94 1535.78 1585.23 1537 1589.1C1538.32 1592.96 1535.47 1597.65 1532.58 1601.36Z" />
				<path id="&lt;Path&gt;" class="shp5" d="M1497.5 1631.66C1499.33 1630.55 1504.2 1626.19 1510.34 1625.16C1516.2 1623.65 1523.33 1625.47 1523.07 1625.61C1523.19 1625.97 1518.69 1620.03 1511.15 1617.84C1503.94 1615.15 1493.69 1616.21 1490.17 1618.89C1482.29 1623.42 1481.06 1632.01 1484.66 1633.88C1488.23 1635.85 1493.34 1633.87 1497.5 1631.66Z" />
				<path id="&lt;Path&gt;" class="shp5" d="M1531.93 1669.35C1533.76 1668.24 1538.63 1663.88 1544.77 1662.85C1550.63 1661.34 1557.76 1663.16 1557.49 1663.3C1557.62 1663.66 1553.12 1657.72 1545.57 1655.53C1538.37 1652.84 1528.12 1653.91 1524.6 1656.58C1516.72 1661.11 1515.48 1669.7 1519.09 1671.57C1522.66 1673.54 1527.77 1671.56 1531.93 1669.35Z" />
				<path id="&lt;Path&gt;" class="shp5" d="M1557.11 1701.54C1558.94 1700.43 1563.81 1696.07 1569.95 1695.04C1575.81 1693.53 1582.94 1695.36 1582.68 1695.5C1582.8 1695.85 1578.3 1689.91 1570.76 1687.73C1563.55 1685.04 1553.3 1686.1 1549.78 1688.78C1541.9 1693.3 1540.67 1701.89 1544.27 1703.76C1547.84 1705.74 1552.95 1703.75 1557.11 1701.54Z" />
				<path id="&lt;Path&gt;" class="shp5" d="M1578.07 1733.74C1579.9 1732.63 1584.77 1728.26 1590.91 1727.23C1596.77 1725.72 1603.9 1727.55 1603.63 1727.69C1603.76 1728.04 1599.26 1722.1 1591.71 1719.92C1584.51 1717.23 1574.26 1718.29 1570.74 1720.97C1562.86 1725.5 1561.63 1734.08 1565.23 1735.95C1568.8 1737.93 1573.91 1735.94 1578.07 1733.74Z" />
				<path id="&lt;Path&gt;" class="shp5" d="M1591.9 1671.24C1590.48 1672.85 1585.34 1676.88 1583.25 1682.75C1580.75 1688.25 1581.3 1695.59 1581.48 1695.36C1581.81 1695.54 1576.75 1690.08 1575.91 1682.27C1574.52 1674.71 1577.35 1664.8 1580.6 1661.8C1586.43 1654.83 1595.1 1655.11 1596.32 1658.98C1597.64 1662.84 1594.79 1667.53 1591.9 1671.24Z" />
				<path id="&lt;Path&gt;" class="shp5" d="M1615.73 1706.61C1614.31 1708.22 1609.17 1712.25 1607.09 1718.12C1604.58 1723.62 1605.13 1730.96 1605.31 1730.73C1605.64 1730.91 1600.58 1725.45 1599.74 1717.64C1598.35 1710.07 1601.18 1700.16 1604.43 1697.16C1610.27 1690.2 1618.93 1690.48 1620.15 1694.35C1621.47 1698.21 1618.62 1702.9 1615.73 1706.61Z" />
				<g id="&lt;Group&gt;">
					<g id="&lt;Group&gt;">
						<path id="&lt;Path&gt;" class="shp5" d="M1528.38 1764.11C1531.13 1765.83 1538.14 1771.7 1541.73 1775.34C1551.57 1785.33 1560.49 1799.54 1565.36 1815.6C1565.66 1816.62 1565.77 1817.55 1566.71 1818.15C1566.94 1818.29 1567.28 1818.2 1567.41 1817.96C1567.98 1816.89 1567.5 1815.9 1567.19 1814.77C1564.9 1806.72 1560.2 1796.61 1553.13 1786.78C1541.15 1770.13 1532.27 1766.29 1528.43 1764.01C1528.37 1763.98 1528.31 1764.07 1528.38 1764.11Z" />
					</g>
					<path id="&lt;Path&gt;" class="shp5" d="M1518.63 1774.03C1520.2 1773.31 1524.48 1770.29 1529.47 1770.03C1534.27 1769.36 1539.79 1771.47 1539.57 1771.56C1539.63 1771.85 1536.59 1766.71 1530.78 1764.27C1525.28 1761.46 1517.01 1761.37 1513.96 1763.18C1507.27 1766.07 1505.49 1772.79 1508.19 1774.62C1510.86 1776.52 1515.11 1775.41 1518.63 1774.03Z" />
					<path id="&lt;Path&gt;" class="shp5" d="M1538.22 1750.02C1537.72 1751.67 1535.28 1756.31 1535.69 1761.29C1535.67 1766.14 1538.49 1771.33 1538.55 1771.1C1538.85 1771.13 1533.34 1768.79 1530.16 1763.36C1526.65 1758.28 1525.46 1750.1 1526.85 1746.83C1528.82 1739.81 1535.26 1737.16 1537.42 1739.6C1539.66 1741.99 1539.12 1746.35 1538.22 1750.02Z" />
				</g>
			</g>
			<g id="&lt;Group&gt;">
				<g id="&lt;Group&gt;">
					<path id="&lt;Path&gt;" class="shp5" d="M270.09 1370.04C278.37 1375.02 285.95 1381.74 293.51 1387.74C334.61 1420.38 376.31 1451.97 433 1518.39C508.8 1607.2 565.42 1708.04 599.95 1818.18C601.19 1822.12 607.42 1820.43 606.16 1816.46C583.69 1745.62 551.84 1677.85 511.77 1615.26C403.52 1446.15 268.63 1369.16 270.09 1370.04Z" />
				</g>
				<g id="&lt;Group&gt;">
					<path id="&lt;Path&gt;" class="shp5" d="M474.76 1390.41C483.82 1450.07 514.95 1503.71 536.41 1559.39C593.81 1708.32 603.12 1820.87 608.29 1833.44C608.8 1834.7 610.45 1834.48 610.61 1833.12C612.04 1821.45 599.5 1740.65 574.56 1655.7C533.1 1514.45 489.7 1459.27 476.72 1389.87C476.48 1388.57 474.57 1389.14 474.76 1390.41Z" />
				</g>
				<path id="&lt;Path&gt;" class="shp5" d="M338.29 1373.08C336.74 1376.18 330.35 1384.56 329.49 1394.57C327.81 1404.18 331.66 1415.41 331.85 1414.97C332.44 1415.13 322.31 1408.66 317.83 1396.8C312.58 1385.56 312.97 1368.94 316.82 1362.94C323.09 1349.69 336.73 1346.6 340.21 1352.15C343.84 1357.64 341.3 1366.11 338.29 1373.08Z" />
				<path id="&lt;Path&gt;" class="shp5" d="M432.35 1467.53C431.19 1470.77 425.86 1479.82 426.19 1489.82C425.66 1499.53 430.8 1510.18 430.94 1509.72C431.54 1509.81 420.75 1504.6 414.92 1493.41C408.39 1482.91 406.82 1466.43 409.92 1460.03C414.55 1446.19 427.68 1441.52 431.77 1446.6C436.02 1451.6 434.51 1460.28 432.35 1467.53Z" />
				<path id="&lt;Path&gt;" class="shp5" d="M552.09 1514.04C549.68 1514.87 541.99 1515.97 536.37 1520.79C530.53 1524.97 526.76 1532.85 527.09 1532.72C527.31 1533.11 525.33 1524.48 529.1 1515.94C532.14 1507.32 540.92 1498.8 546.04 1497.63C556.18 1493.9 564.94 1499.32 563.9 1504.03C562.97 1508.79 557.27 1511.93 552.09 1514.04Z" />
				<path id="&lt;Path&gt;" class="shp5" d="M563.98 1543.15C561.57 1543.98 553.89 1545.08 548.27 1549.89C542.43 1554.08 538.65 1561.96 538.98 1561.83C539.21 1562.22 537.23 1553.59 540.99 1545.05C544.03 1536.43 552.82 1527.9 557.94 1526.74C568.07 1523.01 576.83 1528.43 575.79 1533.14C574.87 1537.9 569.16 1541.04 563.98 1543.15Z" />
				<path id="&lt;Path&gt;" class="shp5" d="M298.43 1434.88C300.43 1432.4 305.01 1423.84 313.07 1419.29C320.47 1414.21 331.35 1413.14 331.06 1413.46C331.41 1413.9 322.12 1407.89 310.48 1408.67C299.05 1408.56 285.28 1415.25 281.72 1420.78C273.02 1431.1 275.65 1443.71 281.63 1444.49C287.62 1445.44 293.75 1440.07 298.43 1434.88Z" />
				<path id="&lt;Path&gt;" class="shp5" d="M356.01 1488.04C358.01 1485.56 362.59 1477 370.64 1472.44C378.05 1467.37 388.93 1466.29 388.63 1466.62C388.99 1467.05 379.69 1461.04 368.05 1461.82C356.63 1461.72 342.85 1468.41 339.3 1473.93C330.6 1484.25 333.23 1496.86 339.21 1497.65C345.19 1498.59 351.32 1493.23 356.01 1488.04Z" />
				<path id="&lt;Path&gt;" class="shp5" d="M458.17 1440.38C461.35 1440.54 470.97 1439.23 479.38 1443.07C487.84 1446.09 495.1 1454.27 494.66 1454.22C494.52 1454.76 493.92 1443.71 486.46 1434.74C479.84 1425.43 466.34 1418.21 459.78 1418.57C446.32 1417.59 437.65 1427.12 440.52 1432.42C443.28 1437.82 451.22 1439.63 458.17 1440.38Z" />
				<path id="&lt;Path&gt;" class="shp5" d="M475.03 1481.18C478.22 1481.34 487.84 1480.03 496.25 1483.87C504.71 1486.89 511.96 1495.07 511.52 1495.02C511.38 1495.56 510.79 1484.51 503.33 1475.54C496.7 1466.23 483.2 1459.01 476.64 1459.37C463.18 1458.39 454.52 1467.92 457.39 1473.22C460.14 1478.62 468.08 1480.43 475.03 1481.18Z" />
				<path id="&lt;Path&gt;" class="shp5" d="M429.31 1569.96C431.31 1567.47 435.89 1558.91 443.94 1554.36C451.35 1549.28 462.23 1548.21 461.93 1548.54C462.29 1548.97 452.99 1542.96 441.35 1543.74C429.93 1543.64 416.15 1550.33 412.6 1555.85C403.9 1566.17 406.53 1578.78 412.51 1579.57C418.49 1580.51 424.62 1575.15 429.31 1569.96Z" />
				<path id="&lt;Path&gt;" class="shp5" d="M264.53 1390.74C266.11 1389.44 270.12 1384.67 275.77 1382.88C281.1 1380.67 288.07 1381.43 287.84 1381.6C288.01 1381.92 282.96 1376.92 275.55 1375.87C268.39 1374.29 258.86 1376.67 255.89 1379.67C249.07 1385 249.06 1393.27 252.71 1394.55C256.34 1395.94 260.9 1393.38 264.53 1390.74Z" />
				<path id="&lt;Path&gt;" class="shp5" d="M279.82 1357.25C279.73 1359.29 278.33 1365.36 280.3 1370.96C281.73 1376.54 286.53 1381.66 286.53 1381.38C286.88 1381.32 279.86 1380.29 274.56 1375C269 1370.22 265.17 1361.18 265.79 1357C265.94 1348.34 272.54 1343.37 275.76 1345.51C279.05 1347.58 279.74 1352.76 279.82 1357.25Z" />
				<g id="&lt;Group&gt;">
					<g id="&lt;Group&gt;">
						<path id="&lt;Path&gt;" class="shp5" d="M276.88 1654.22C356.71 1678.64 425.81 1729.05 492.24 1778.02C537.04 1811.04 533.27 1817.31 542.64 1822.74C544.16 1823.62 546.12 1822.16 545.63 1820.44C543.22 1812.06 534.07 1804.96 527.86 1799.22C520.63 1792.54 512.92 1786.39 505.03 1780.52C488.14 1767.95 470.59 1756.2 453.19 1744.36C417.79 1720.27 381.58 1697.06 342.85 1678.65C321.61 1668.55 299.68 1660.02 277.06 1653.57C276.64 1653.45 276.46 1654.1 276.88 1654.22Z" />
					</g>
					<path id="&lt;Path&gt;" class="shp5" d="M355.16 1642.9C353.99 1646.14 348.66 1655.2 348.99 1665.2C348.47 1674.9 353.6 1685.55 353.74 1685.1C354.34 1685.18 343.56 1679.98 337.72 1668.78C331.2 1658.29 329.62 1641.8 332.72 1635.4C337.35 1621.56 350.48 1616.89 354.58 1621.97C358.82 1626.97 357.31 1635.65 355.16 1642.9Z" />
					<path id="&lt;Path&gt;" class="shp5" d="M422.1 1682.25C420.93 1685.5 415.6 1694.55 415.93 1704.55C415.41 1714.25 420.54 1724.9 420.68 1724.45C421.28 1724.53 410.5 1719.33 404.66 1708.14C398.14 1697.64 396.56 1681.15 399.66 1674.76C404.29 1660.91 417.42 1656.24 421.52 1661.32C425.76 1666.32 424.25 1675 422.1 1682.25Z" />
					<path id="&lt;Path&gt;" class="shp5" d="M488.9 1728.64C487.73 1731.88 482.4 1740.93 482.73 1750.93C482.21 1760.64 487.34 1771.29 487.48 1770.83C488.08 1770.92 477.3 1765.71 471.46 1754.52C464.94 1744.02 463.36 1727.54 466.46 1721.14C471.1 1707.3 484.23 1702.63 488.32 1707.71C492.56 1712.71 491.05 1721.39 488.9 1728.64Z" />
					<path id="&lt;Path&gt;" class="shp5" d="M320.97 1705.93C322.97 1703.45 327.55 1694.89 335.61 1690.34C343.01 1685.26 353.89 1684.19 353.6 1684.52C353.95 1684.95 344.66 1678.94 333.02 1679.72C321.59 1679.62 307.82 1686.31 304.26 1691.83C295.56 1702.15 298.19 1714.76 304.17 1715.55C310.16 1716.49 316.29 1711.12 320.97 1705.93Z" />
					<path id="&lt;Path&gt;" class="shp5" d="M390.66 1746.56C392.66 1744.08 397.24 1735.52 405.29 1730.97C412.7 1725.89 423.58 1724.82 423.29 1725.14C423.64 1725.58 414.35 1719.57 402.7 1720.35C391.28 1720.25 377.51 1726.93 373.95 1732.46C365.25 1742.78 367.88 1755.39 373.86 1756.17C379.85 1757.12 385.97 1751.75 390.66 1746.56Z" />
					<path id="&lt;Path&gt;" class="shp5" d="M269.25 1667.91C270.83 1666.62 274.84 1661.85 280.5 1660.05C285.82 1657.84 292.79 1658.61 292.56 1658.78C292.73 1659.09 287.69 1654.09 280.27 1653.04C273.11 1651.47 263.58 1653.85 260.62 1656.85C253.79 1662.18 253.78 1670.45 257.43 1671.73C261.06 1673.11 265.62 1670.55 269.25 1667.91Z" />
					<path id="&lt;Path&gt;" class="shp5" d="M284.54 1634.43C284.46 1636.47 283.05 1642.54 285.02 1648.14C286.45 1653.72 291.25 1658.84 291.25 1658.55C291.6 1658.49 284.58 1657.47 279.28 1652.18C273.72 1647.4 269.89 1638.35 270.51 1634.18C270.66 1625.52 277.26 1620.54 280.48 1622.69C283.77 1624.76 284.46 1629.94 284.54 1634.43Z" />
				</g>
			</g>
			<path id="&lt;Path&gt;" class="shp5" d="M2443.04 1811.21L246.88 1811.21C242.08 1811.21 238.2 1816.66 238.2 1823.38C238.2 1830.11 242.08 1835.56 246.88 1835.56L2443.04 1835.56C2447.83 1835.56 2451.72 1830.11 2451.72 1823.38C2451.72 1816.66 2447.83 1811.21 2443.04 1811.21Z" />
			<g id="&lt;Group&gt;">
				<g id="&lt;Group&gt;">
					<path id="&lt;Path&gt;" class="shp6" d="M1833.68 1113.03C1832.77 1091.59 1836.01 1070.42 1845.86 1050.46C1854.34 1033.28 1875.31 1023.54 1894.44 1023.51C1955.17 1023.44 1962.89 1101.57 2001.55 1131.71C2013.15 1140.75 2026.08 1148.15 2037.12 1157.81C2037.29 1164.32 2036.25 1170.74 2034.2 1176.6C2022.27 1208.2 1991.84 1226.09 1962.6 1242.19C1936.17 1256.38 1908.03 1262.43 1879.38 1263.74C1868.7 1242.19 1861.17 1218.29 1852.97 1196.02C1843.13 1169.32 1834.9 1141.53 1833.68 1113.03Z" />
					<g id="&lt;Group&gt;">
						<path id="&lt;Path&gt;" class="shp7" d="M1786.3 1076.02C1779.35 1060.4 1770.6 1011.93 1767.67 995.46C1768.35 994.18 1771.94 986.58 1769.98 972.72C1768.59 962.94 1773.71 945.93 1767.53 947.71C1761.35 949.49 1762.86 966.58 1758.76 964.05C1754.66 961.52 1749.1 926.01 1743.49 927.62C1737.89 929.23 1745.38 962.43 1741.72 960.17C1738.05 957.91 1734.57 926.92 1726.65 929.2C1718.73 931.47 1734.13 965.28 1729.88 966.5C1725.64 967.72 1716.48 946.16 1710.11 948C1703.73 949.83 1724.02 976.85 1721.86 975.52C1719.7 974.19 1704.6 963.89 1702.58 966.77C1700.3 970.04 1735.97 1000.34 1737.02 1009.21C1736.78 1032 1735.85 1073.32 1745.86 1098.16C1754.03 1118.41 1768.19 1150.93 1788.36 1195.73L1835.63 1178.98C1808.24 1122.68 1791.8 1088.36 1786.3 1076.02Z" />
						<path id="&lt;Path&gt;" class="shp8" d="M1754.14 971.23C1751.87 972.55 1750.07 974.42 1748.54 976.49C1748.39 976.89 1742.96 983.25 1745.5 992.37C1745.95 986.57 1746.48 980.14 1754.14 971.23Z" />
					</g>
					<path id="&lt;Path&gt;" class="shp7" d="M2088.91 1182.78C2087.53 1177.67 2088.57 1170.86 2092.03 1162.36C2095.36 1154.19 2094.92 1138.3 2099.64 1141.22C2104.36 1144.14 2099.29 1158.63 2103.25 1157.35C2107.2 1156.07 2119.74 1126.51 2124.01 1129.16C2128.29 1131.81 2114.68 1158.93 2118.22 1157.78C2121.76 1156.64 2131.56 1130.54 2137.6 1134.29C2143.65 1138.03 2123.36 1163.9 2126.6 1165.91C2129.85 1167.92 2142.23 1151.27 2147.1 1154.28C2151.97 1157.29 2129.15 1176.2 2131.23 1175.53C2133.31 1174.85 2148.11 1169.29 2149.14 1172.24C2150.3 1175.58 2119.59 1189.02 2116.74 1196.48C2113.88 1203.93 2066.8 1280.29 2051.19 1282.01C2035.58 1283.72 1960.34 1243.8 1953.59 1228.92C1946.84 1214.03 1951.43 1196.98 1961.42 1193.75C1971.41 1190.52 2041.86 1230.56 2044.99 1229.54C2047.08 1228.87 2061.72 1213.28 2088.91 1182.78Z" />
					<path id="&lt;Path&gt;" class="shp8" d="M2102.58 1162.71C2104.35 1164.65 2105.52 1166.97 2106.36 1169.4C2106.39 1169.82 2109.68 1177.52 2104.54 1185.47C2105.83 1179.79 2107.24 1173.5 2102.58 1162.71Z" />
					<path id="&lt;Path&gt;" class="shp7" d="M2025.01 1538.93C2030.4 1537.06 2037.97 1531.19 2047.72 1521.33C2060.23 1531 2079.45 1550.91 2105.37 1581.06C2100.53 1584.4 2096.04 1585.13 2091.9 1583.25C2085.7 1580.44 2057.16 1567.67 2043.89 1572.27C2040.44 1573.47 2001.73 1586.6 1967.41 1595.45C1963.19 1583.14 1974.79 1558.54 1969.06 1546.99C1987.38 1541.03 2022.33 1539.86 2025.01 1538.93Z" />
					<path id="&lt;Path&gt;" class="shp9" d="M2034.38 1533.21C2056.81 1556.14 2069.13 1569.64 2071.31 1573.71C2073.99 1578.69 2115.76 1595.76 2117.85 1589.38C2119.95 1583 2068.16 1514.63 2059.99 1512.13C2054.54 1510.46 2046 1517.49 2034.38 1533.21Z" />
					<path id="&lt;Path&gt;" class="shp7" d="M1816.38 1638.92C1818.26 1644.14 1824.25 1651.51 1834.37 1661.02C1824.21 1672.98 1803.35 1691.29 1771.8 1715.96C1768.39 1711.25 1767.68 1706.91 1769.68 1702.95C1772.66 1697 1787.79 1659.97 1783.17 1647.12C1781.96 1643.78 1773.12 1618.86 1764.82 1604.77C1777.63 1600.84 1790.18 1594.78 1802.22 1589.38C1808.2 1607.11 1815.44 1636.33 1816.38 1638.92Z" />
					<path id="&lt;Path&gt;" class="shp6" d="M1821.66 1372.24C1763.27 1429.89 1731.1 1464.28 1725.15 1475.4C1720.7 1483.71 1731.95 1530.59 1758.9 1616.04C1784.24 1614.11 1802.2 1608.04 1812.8 1597.82C1799.39 1538.2 1794.08 1507.05 1796.87 1504.37C1799.65 1501.68 1834.4 1480.99 1901.12 1442.28L1888.69 1389.29L1821.66 1372.24Z" />
					<path id="&lt;Path&gt;" class="shp10" d="M1840.98 1369.96C1856.22 1405.35 1863.85 1429.95 1863.85 1443.75C1863.85 1459.61 1856.84 1586.65 1890.32 1598.9C1902.98 1603.54 1939.14 1602.43 1998.78 1595.6L1990.67 1538.08C1962.28 1542.3 1946.83 1543.2 1944.34 1540.79C1940.6 1537.19 1978.45 1441.39 1970.56 1408.53C1965.29 1386.62 1940.77 1368.98 1897 1355.62L1840.98 1369.96Z" />
					<path id="&lt;Path&gt;" class="shp11" d="M1812.6 1123.3C1805.48 1125.43 1790.96 1141.39 1769.05 1171.18L1821.83 1254.59L1853.98 1177.07L1812.6 1123.3Z" />
					<path id="&lt;Path&gt;" class="shp11" d="M1889.52 1177.84C1870.1 1175.65 1856.89 1173.28 1849.89 1170.74C1839.4 1166.93 1770.56 1394.14 1794.63 1399.31C1828.16 1406.51 1888.48 1419.7 1975.57 1438.89C1977.09 1430.23 1975.5 1418.43 1970.81 1403.48C1958.61 1364.65 1951.7 1275.79 1951.7 1260.13C1951.7 1254 1967.59 1261.56 1999.36 1282.83L2019.34 1210.65C1978.77 1194.36 1951.37 1184.75 1937.16 1181.81C1933.19 1181 1917.31 1179.67 1889.52 1177.84Z" />
					<path id="&lt;Path&gt;" class="shp9" d="M1821.6 1647.27C1796.29 1670.36 1781.34 1683.02 1776.76 1685.25C1771.16 1687.97 1758.21 1728.95 1765.33 1731.21C1772.45 1733.47 1842.92 1682.68 1845.82 1674.2C1847.75 1668.55 1839.68 1659.57 1821.6 1647.27Z" />
					<path id="&lt;Path&gt;" class="shp7" d="M1873.31 1150.22C1873.96 1171.59 1873.27 1183.28 1871.27 1185.29C1868.26 1188.3 1864.05 1193.29 1868.48 1200.94C1872.91 1208.59 1892.13 1203.71 1901.09 1199.33C1906.82 1196.53 1911.54 1192.53 1915.23 1187.31L1910.75 1136.53L1873.31 1150.22Z" />
					<path id="&lt;Path&gt;" class="shp12" d="M1886.09 1163.5C1892.27 1161.34 1903.05 1157.17 1911.38 1143.64L1910.75 1136.53L1873.31 1150.22C1873.47 1155.43 1873.51 1160.8 1873.42 1166.32C1878.67 1166.1 1883.15 1164.54 1886.09 1163.5Z" />
					<path id="&lt;Path&gt;" class="shp7" d="M1880.96 1038.71C1868.88 1038.44 1859.76 1043 1853.59 1052.4C1844.33 1066.49 1834.26 1106.74 1849.56 1134.52C1864.86 1162.3 1884.38 1155.45 1892.43 1152.64C1900.48 1149.82 1916.39 1143.58 1924.44 1117.61C1932.49 1091.65 1926.65 1033.28 1880.96 1038.71Z" />
					<path id="&lt;Path&gt;" class="shp0" d="M1884.57 1122.38L1855.38 1119.7C1855.15 1127.13 1859.31 1131.36 1867.84 1132.39C1878.25 1133.65 1883.83 1130.31 1884.57 1122.38Z" />
					<path id="&lt;Path&gt;" class="shp6" d="M1874.06 1038.84C1891.46 1069 1906.38 1084.78 1918.82 1086.17C1931.26 1087.56 1938.3 1096.28 1939.94 1112.3C1935.79 1073.18 1927.55 1050.06 1915.23 1042.94C1902.92 1035.82 1889.19 1034.45 1874.06 1038.84Z" />
					<path id="&lt;Path&gt;" class="shp7" d="M1917.34 1100.28C1917.95 1087.71 1922.11 1082.65 1929.83 1085.09C1941.41 1088.75 1932.59 1117.2 1922.99 1116.26C1916.59 1115.64 1914.71 1110.31 1917.34 1100.28Z" />
				</g>
				<g id="&lt;Group&gt;">
					<g id="&lt;Group&gt;">
						<path id="&lt;Path&gt;" class="shp0" d="M1598.29 801.54C1551.65 808.92 1507.86 777.09 1500.48 730.45C1493.1 683.81 1524.93 640.02 1571.56 632.65C1618.2 625.27 1661.99 657.09 1669.37 703.73C1676.75 750.37 1644.92 794.16 1598.29 801.54Z" />
						<path id="&lt;Path&gt;" class="shp11" d="M1669.37 703.73C1665.4 678.64 1650.88 657.84 1631.05 645.12C1616.19 638.24 1599.2 635.54 1581.81 638.29C1535.18 645.66 1503.35 689.46 1510.73 736.09C1514.7 761.19 1529.22 781.98 1549.05 794.7C1563.91 801.59 1580.9 804.29 1598.29 801.54C1644.92 794.16 1676.75 750.37 1669.37 703.73Z" />
						<path id="&lt;Path&gt;" class="shp0" d="M1670.09 709.87C1661.26 672.87 1625.3 648.32 1587.09 654.36C1572.84 685.08 1554.59 710.19 1525.93 738.51C1531.97 776.72 1566.42 803.35 1604.35 800.33C1648.54 791.05 1674.88 753.72 1670.09 709.87Z" />
						<path id="&lt;Path&gt;" class="shp13" d="M1587.09 654.36C1583.92 643.27 1575.48 637 1567.21 633.45C1524.19 642.52 1495 682.95 1499.98 726.7C1508.56 733.73 1518.33 739.02 1525.93 738.51C1557.35 716.13 1577.74 688.08 1587.09 654.36Z" />
						<path id="&lt;Path&gt;" class="shp11" d="M1503.44 691.18C1513.33 698.27 1534.44 710.14 1552.14 714.42C1559.28 706.56 1566.83 696.97 1573.37 685.95C1564.32 673.82 1550.19 661.31 1532.16 649.81C1518.7 660.39 1508.65 674.83 1503.44 691.18Z" />
					</g>
					<path id="&lt;Path&gt;" class="shp13" d="M1631.44 661.21C1635.19 687.27 1624.87 715.16 1603.87 738.2C1585.79 758.03 1563.41 770.31 1540.76 772.49C1547.37 780.88 1555.73 787.72 1565.2 792.55C1588.49 789.72 1610.91 778.86 1627.96 760.16C1649.02 737.06 1657.41 706.88 1653.55 678.15C1647.32 671.15 1639.8 665.4 1631.44 661.21Z" />
				</g>
				<g id="&lt;Group&gt;">
					<path id="&lt;Path&gt;" class="shp14" d="M951.28 560.06C947.96 566.2 943.5 574.07 937.89 583.69C937.11 588.05 933.71 606.18 929.48 628.38L900.8 607.13C907.27 583.51 910.23 570.85 909.65 569.15C908.93 566.99 906.29 568.75 900.16 552.11C898.98 548.91 898.85 544.85 899.76 539.92C900.93 533.87 902.26 530.74 903.75 530.54C905.97 530.23 907.91 532.17 908.24 533.9C908.56 535.64 907.43 539.18 907.75 540.91C908.07 542.64 912.22 545.72 914.19 546.13C915.51 546.41 917.74 537.59 920.88 519.67C921.46 514.51 921.78 511.06 921.84 509.34C921.89 507.87 921.82 504.94 921.62 500.54C921.69 494.25 922.7 491.12 924.65 491.15C926.38 491.17 928.62 499.45 929.44 507.83C930.33 516.85 929.77 526.02 930.67 526.13C932.08 526.31 933.69 521.49 935.5 511.69C935.29 506.93 935.48 503.51 936.06 501.44C935.14 497.12 935.72 489.69 939.27 490C939.7 490.03 940.62 493.45 942.03 500.23C942.09 504.76 942.2 508.11 942.36 510.26C942.8 515.96 940.9 524.28 940.89 528.17C940.88 531.4 941.91 530.34 942.2 530.55C942.43 530.72 943.09 526.43 944.09 520.56C944.6 517.6 945.81 514.36 945.87 510.85C945.92 507.61 946.63 503.13 947.13 500.45C948.54 492.84 953.04 494.84 952.87 502.09C952.8 504.85 952.71 507.85 952.61 510.9C952.19 522.74 949.29 533.5 950.47 533.9C951.49 534.25 953.38 527.8 956.13 514.55C959.63 507.73 961.29 507.89 961.12 515.02C960.82 527.44 958.03 536.9 957.88 537.31C956.87 540.1 956.26 550.85 951.28 560.06Z" />
					<path id="&lt;Path&gt;" class="shp15" d="M942.46 586.73C934.94 583.58 918.24 579.96 905.9 578.68L835.51 739.14C802.01 789.54 772 822.11 745.49 836.85C787.12 859.6 776.38 926.07 793.06 908.92C834.97 865.84 892.03 782.25 897.82 769.01C902.84 757.56 941.74 591.32 942.46 586.73Z" />
					<g id="&lt;Group&gt;">
						<g id="&lt;Group&gt;">
							<path id="&lt;Path&gt;" class="shp8" d="M574.77 1711.14C565.14 1720.56 560.22 1727 560 1730.46C559.67 1735.65 558.72 1791.21 564.62 1796.4C570.51 1801.58 590.32 1810.72 582.26 1811.09C576.49 1811.36 544.66 1812.55 523.2 1811.36C516.94 1811.02 510.11 1762.92 507.63 1755.55C504.02 1744.85 495.26 1720.76 498.54 1713.3C500.13 1709.67 507.77 1702.2 518.53 1695.23C526.07 1690.35 533.45 1682.46 540.67 1671.58L574.77 1711.14Z" />
							<path id="&lt;Path&gt;" class="shp7" d="M726.3 1744.05C717.68 1768.46 713.37 1780.7 713.36 1780.76C712.4 1786.56 708.62 1800.89 708.62 1806.17C708.62 1825.98 797.71 1789.35 777.74 1780.57C775.93 1779.78 770.26 1773.43 769.67 1766.68C769.06 1759.76 771.56 1751.95 777.17 1743.27L726.3 1744.05Z" />
							<g id="&lt;Group&gt;">
								<path id="&lt;Path&gt;" class="shp12" d="M866.06 1062.24C870.39 1106 872.55 1128.2 872.55 1128.86C872.55 1235.04 893.54 1442.44 889.55 1462.41C883.06 1494.87 844.88 1593.89 775.01 1759.48L718.37 1752.69L792.18 1455.3L765.02 1335.6L726.59 1098.99L866.06 1062.24Z" />
								<path id="&lt;Path&gt;" class="shp11" d="M675.96 1120.29L665.22 1182.51L636.14 1438.55L525.4 1688.79C535.78 1713.06 548.64 1726.9 563.96 1730.31L740.21 1473.39L849.69 1144.64L845.84 1071.6L675.96 1120.29Z" />
							</g>
							<path id="&lt;Path&gt;" class="shp13" d="M519.23 1694.88C541.42 1757.54 556.86 1790.38 565.54 1793.41C569 1794.61 585.6 1797.67 588.73 1805.03C589.36 1806.51 589.5 1809.06 589.15 1812.7L519.77 1812.7C513.64 1786.4 509.42 1767.18 507.11 1755.05C494.87 1725.41 489.43 1709.25 490.79 1706.55C492.15 1703.86 501.63 1699.97 519.23 1694.88Z" />
							<path id="&lt;Path&gt;" class="shp13" d="M703.55 1812.7L713.75 1780.38C728.03 1786.44 738.75 1788.97 745.89 1787.96C753.03 1786.95 763.57 1784.42 777.52 1780.38C820.28 1794.5 855.31 1801.35 848.94 1812.7L703.55 1812.7Z" />
							<path id="&lt;Path&gt;" class="shp14" d="M435.5 550.65C438.41 558.39 442.37 568.36 447.4 580.54C447.62 585.79 448.7 607.62 450.08 634.36L487.17 614.04C483.38 585.27 481.95 569.93 482.9 568.03C484.1 565.62 486.91 568.11 496.79 549.56C498.69 545.99 499.5 541.24 499.22 535.31C498.82 528.02 497.76 524.14 496.05 523.66C493.49 522.94 490.89 524.9 490.24 526.88C489.58 528.87 490.34 533.21 489.68 535.19C489.03 537.17 483.66 540.11 481.27 540.28C479.68 540.4 478.49 529.68 477.69 508.14C477.84 501.99 478.02 497.89 478.23 495.86C478.4 494.13 478.96 490.69 479.9 485.56C480.83 478.17 480.15 474.33 477.86 474.05C475.83 473.8 471.87 483.16 469.55 492.86C467.05 503.3 466.23 514.16 465.15 514.15C463.47 514.12 462.36 508.21 461.82 496.41C462.83 490.86 463.15 486.82 462.81 484.3C464.59 479.37 465.1 470.56 460.89 470.35C460.37 470.32 458.74 474.18 456 481.91C455.2 487.22 454.53 491.13 453.99 493.63C452.56 500.25 453.44 510.33 452.83 514.89C452.32 518.68 451.28 517.28 450.91 517.48C450.62 517.63 450.53 512.49 450.3 505.44C450.18 501.89 449.28 497.88 449.78 493.76C450.24 489.95 450.12 484.58 449.97 481.34C449.54 472.19 443.94 473.81 442.97 482.34C442.6 485.6 442.23 489.14 441.86 492.73C440.44 506.7 442.11 519.79 440.66 520.08C439.4 520.33 438.23 512.45 437.14 496.45C434.13 487.88 432.15 487.8 431.2 496.2C429.56 510.83 431.31 522.38 431.42 522.89C432.15 526.32 431.14 539.04 435.5 550.65Z" />
							<path id="&lt;Path&gt;" class="shp9" d="M695.75 661.66C680.83 649.32 669.08 652.27 660.49 670.53C651.74 666.92 644.99 669.56 640.23 678.45C624.88 675.78 616.75 685.74 615.84 708.31C608.04 707.8 604.19 712.13 604.28 721.31C604.37 730.49 607.08 737.82 612.41 743.3C608.52 747.03 608.05 752.94 611 761.03C613.51 767.91 617.76 771.54 623.75 771.91C626.77 783.65 631.09 791 636.7 793.97C642.31 796.94 648.54 797.13 655.37 794.56C658.02 800.8 662.33 803.27 668.3 801.96C677.26 800 687.43 790.02 698.03 792.68C705.1 794.45 717.24 792.9 734.45 788.05C753.09 776.9 758.24 761.61 749.91 742.2C759.13 731.6 758.53 721.24 748.12 711.13C752.61 692.78 747.69 679.23 733.35 670.46C719.02 661.69 706.48 658.76 695.75 661.66Z" />
							<path id="&lt;Path&gt;" class="shp13" d="M759.05 851.99L713.53 828.57C686.56 832.5 671.41 834.67 668.07 835.08C663.04 835.68 653.6 1024.12 652.8 1094.7C652.28 1141.75 654.88 1169.09 660.63 1176.72C704.56 1181.16 742.18 1180.07 773.49 1173.43C806.04 1166.53 839.75 1151.96 874.62 1129.72C835.73 1044.12 811.81 987.77 802.87 960.66C793.93 933.55 779.33 897.32 759.05 851.99Z" />
							<path id="&lt;Path&gt;" class="shp6" d="M669.87 834.61L520.34 715.08C497.63 631.07 485.64 587.51 484.37 584.39C482.5 579.81 449.14 581.24 435.66 581.56C431.33 581.66 454.42 717.89 463.57 740.09C470.78 757.57 512.91 803.47 589.96 877.77C607.39 920.95 616.63 959.1 617.7 992.19C620.35 1074.64 614.49 1189.21 618.4 1192.31C641.68 1203.32 724.89 1194.74 729.12 1185.63C760.27 1118.65 740.52 1001.64 669.87 834.61Z" />
							<path id="&lt;Path&gt;" class="shp7" d="M709.58 804.09L716.39 830.3C724.85 855.24 725.93 870.6 719.63 876.37C713.33 882.14 696.76 868.28 669.94 834.81L665.33 766.86L709.58 804.09Z" />
							<path id="&lt;Path&gt;" class="shp11" d="M666.82 788.88C678.16 810.88 700.24 822.57 715.36 826.31L709.58 804.09L665.33 766.86L666.82 788.88Z" />
							<path id="&lt;Path&gt;" class="shp7" d="M680.66 693.04C700.79 683.27 724.87 694.51 730.7 715.77C733.23 725.02 735.92 736.7 737.72 749.61C742.05 780.66 729.61 812.9 715.47 814.61C701.34 816.32 659.85 800.9 653.09 756.89C648.92 729.72 659.54 703.29 680.66 693.04Z" />
							<path id="&lt;Path&gt;" class="shp7" d="M663.93 759.12C664.76 765.99 660.88 772.1 655.26 772.78C649.65 773.46 644.43 768.45 643.6 761.58C642.77 754.72 646.64 748.6 652.26 747.92C657.87 747.24 663.1 752.26 663.93 759.12Z" />
							<path id="&lt;Path&gt;" class="shp9" d="M740.01 670.14C756.01 679.94 763.25 696.89 756.19 708.01C749.12 719.12 730.43 720.19 714.43 710.39C698.43 700.59 691.19 683.64 698.26 672.53C705.32 661.41 724.01 660.35 740.01 670.14Z" />
							<path id="&lt;Path&gt;" class="shp9" d="M702.99 684.25C703.6 689.27 698.03 694.08 690.54 694.98C683.06 695.89 676.5 692.55 675.89 687.53C675.28 682.5 680.85 677.69 688.34 676.79C695.82 675.88 702.39 679.22 702.99 684.25Z" />
							<path id="&lt;Path&gt;" class="shp9" d="M748 718.04C748.78 724.5 744.24 730.36 737.85 731.14C731.46 731.91 725.64 727.3 724.86 720.84C724.08 714.38 728.63 708.51 735.02 707.74C741.41 706.97 747.22 711.58 748 718.04Z" />
							<path id="&lt;Path&gt;" class="shp6" d="M759 827.71C759 827.71 792.5 847.92 862.41 1029.09C864.64 1034.87 897.36 1125 897.8 1128.72C898.8 1136.97 864.16 1151.78 859.83 1151.68C855.94 1151.58 805.06 993.8 775.49 917.15C765.47 891.18 750.78 867.27 732.14 846.59L717.78 834.74L716.39 830.3C732.07 832.32 746.28 831.46 759 827.71Z" />
						</g>
						<path id="&lt;Path&gt;" class="shp0" d="M724.77 778.6L701.12 779.4C701.41 785.49 705.01 788.69 711.95 789.01C720.4 789.39 724.67 785.92 724.77 778.6Z" />
					</g>
				</g>
			</g>
		</g>
	</g>
</svg>